<?xml version="1.0" encoding="utf-8"?>
<!-- Generator: Adobe Illustrator 29.7.1, SVG Export Plug-In . SVG Version: 9.03 Build 0)  -->
<svg version="1.0" id="Layer_1" xmlns="http://www.w3.org/2000/svg" xmlns:xlink="http://www.w3.org/1999/xlink" x="0px" y="0px"
	 viewBox="0 0 114 123.7" style="enable-background:new 0 0 114 123.7;" xml:space="preserve">
<style type="text/css">
	.st0{fill:#824EDC;}
</style>
<g>
	<path class="st0" d="M31.5,13C6.1,27.9,4.5,29,1.9,33.2C0.1,36.2,0,38.5,0,65.5c0,21.7,0.3,29.4,1.3,30.6
		C3.2,98.6,48,124,49.8,123.7c1.5-0.3,1.7-3.1,2-27.7c0.2-21.9,0-27.8-1.1-29.5c-0.8-1.2-9.9-6.8-20.2-12.6
		c-10.3-5.8-19.4-11.5-20.2-12.7c-1.8-2.6-0.9-5.9,1.8-7.4c1.6-0.8,6.3,0,21.8,4c10.9,2.8,21.1,5.1,22.7,5.1
		c4.4,0,49.9-25.9,49.9-28.4c0-1.6-3.4-2.8-24-8.2C69.3,2.8,57.4,0,56,0C54.6,0.1,43.6,5.9,31.5,13z"/>
	<path class="st0" d="M94.2,30l-3.3,2.1l6.3,3.7c3.5,2,6.3,4.3,6.3,5.1c0,0.9-8,6.1-19.4,12.6c-10.6,6-20,11.9-20.7,12.9
		c-1.2,1.6-1.4,7.2-1.2,29.4c0.3,24.8,0.5,27.6,2,27.9c1.8,0.3,46.6-25.1,48.6-27.6c0.9-1.2,1.2-8.8,1.2-30.2s-0.3-29-1.2-30.2
		c-1.6-1.9-12.1-7.8-13.9-7.8C98.1,27.9,96,28.9,94.2,30L94.2,30z"/>
</g>
</svg>
