<?xml version="1.0" encoding="UTF-8"?>
<svg id="svg1" xmlns="http://www.w3.org/2000/svg" xmlns:xlink="http://www.w3.org/1999/xlink" xmlns:svg="http://www.w3.org/2000/svg" version="1.1" viewBox="0 0 96 109.8">
  <!-- Generator: Adobe Illustrator 29.6.1, SVG Export Plug-In . SVG Version: 2.1.1 Build 9)  -->
  <defs>
    <style>
      .st0 {
        fill: none;
      }

      .st1 {
        fill: #fff;
        stroke: #000;
        stroke-linecap: round;
        stroke-linejoin: round;
      }

      .st2 {
        clip-path: url(#clippath);
      }
    </style>
    <clipPath id="clippath">
      <rect class="st0" x="7.5" y="13.2" width="80.7" height="80.2"/>
    </clipPath>
  </defs>
  <g class="st2">
    <g>
      <path id="path1-7" class="st1" d="M27.6-3.3v28.7M40.1-3.3v28.7M15.2,4l24.8,14.4M21.4-6.9l24.8,14.4M15.2,18.3L40,3.9M8.9,7.5l24.8-14.4M27.6,25.5V-3.3M15.1,25.5V-3.3M40,18.3L15.2,3.9M33.8,29.1L8.9,14.8M40,4l-24.8,14.4M46.3,14.8l-24.8,14.4"/>
      <path id="path1-71" data-name="path1-7" class="st1" d="M68,17.7v28.7M80.4,17.7v28.7M55.5,24.9l24.8,14.4M61.7,14.1l24.8,14.4M55.5,39.2l24.8-14.4M49.3,28.5l24.8-14.4M68,46.4v-28.7M55.5,46.4v-28.7M80.4,39.2l-24.8-14.4M74.2,50l-24.9-14.3M80.4,24.9l-24.8,14.4M86.6,35.7l-24.8,14.4"/>
      <path id="path1-72" data-name="path1-7" class="st1" d="M27.6,38.7v28.7M40.1,38.7v28.7M15.2,45.9l24.8,14.4M21.4,35.1l24.8,14.4M15.2,60.2l24.8-14.4M8.9,49.5l24.8-14.4M27.6,67.4v-28.7M15.1,67.4v-28.7M40,60.2l-24.8-14.4M33.8,71l-24.9-14.3M40,45.9l-24.8,14.4M46.3,56.7l-24.8,14.4"/>
      <path id="path1-73" data-name="path1-7" class="st1" d="M68,59.7v28.7M80.4,59.7v28.7M55.5,66.9l24.8,14.4M61.7,56.1l24.8,14.4M55.5,81.2l24.8-14.4M49.3,70.5l24.8-14.4M68,88.4v-28.7M55.5,88.4v-28.7M80.4,81.2l-24.8-14.4M74.2,92l-24.9-14.3M80.4,66.9l-24.8,14.4M86.6,77.7l-24.8,14.4"/>
      <path id="path1-74" data-name="path1-7" class="st1" d="M27.6,80.7v28.7M40.1,80.7v28.7M15.2,87.9l24.8,14.4M21.4,77.1l24.8,14.4M15.2,102.2l24.8-14.4M8.9,91.4l24.8-14.4M27.6,109.4v-28.7M15.1,109.4v-28.7M40,102.2l-24.8-14.4M33.8,113l-24.9-14.3M40,87.9l-24.8,14.4M46.3,98.7l-24.8,14.4"/>
    </g>
  </g>
</svg>